<svg width="111" height="107" viewBox="0 0 111 107" fill="none" xmlns="http://www.w3.org/2000/svg">
<path d="M8.42578 90.9225C7.96484 90.86 7.55859 90.8288 7.20703 90.8288C5.92578 90.8288 5.08594 91.2623 4.6875 92.1295V100.426H1.30078V87.7467H4.5L4.59375 89.2584C5.27344 88.0944 6.21484 87.5123 7.41797 87.5123C7.79297 87.5123 8.14453 87.5631 8.47266 87.6647L8.42578 90.9225ZM15.668 100.661C13.8086 100.661 12.293 100.09 11.1211 98.9498C9.95703 97.8092 9.375 96.2897 9.375 94.3913V94.0631C9.375 92.7897 9.62109 91.653 10.1133 90.653C10.6055 89.6452 11.3008 88.8717 12.1992 88.3327C13.1055 87.7858 14.1367 87.5123 15.293 87.5123C17.0273 87.5123 18.3906 88.0592 19.3828 89.153C20.3828 90.2467 20.8828 91.7975 20.8828 93.8053V95.1881H12.8086C12.918 96.0163 13.2461 96.6803 13.793 97.1803C14.3477 97.6803 15.0469 97.9303 15.8906 97.9303C17.1953 97.9303 18.2148 97.4577 18.9492 96.5123L20.6133 98.3756C20.1055 99.0944 19.418 99.6569 18.5508 100.063C17.6836 100.462 16.7227 100.661 15.668 100.661ZM15.2812 90.2545C14.6094 90.2545 14.0625 90.4811 13.6406 90.9342C13.2266 91.3873 12.9609 92.0358 12.8438 92.8795H17.5547V92.61C17.5391 91.86 17.3359 91.2819 16.9453 90.8756C16.5547 90.4616 16 90.2545 15.2812 90.2545ZM22.3242 93.9928C22.3242 92.0475 22.7852 90.4811 23.707 89.2936C24.6367 88.1061 25.8867 87.5123 27.457 87.5123C28.8477 87.5123 29.9297 87.9889 30.7031 88.942L30.8438 87.7467H33.9141V100.005C33.9141 101.114 33.6602 102.079 33.1523 102.899C32.6523 103.719 31.9453 104.344 31.0312 104.774C30.1172 105.204 29.0469 105.419 27.8203 105.419C26.8906 105.419 25.9844 105.231 25.1016 104.856C24.2188 104.489 23.5508 104.012 23.0977 103.426L24.5977 101.364C25.4414 102.309 26.4648 102.782 27.668 102.782C28.5664 102.782 29.2656 102.54 29.7656 102.055C30.2656 101.579 30.5156 100.899 30.5156 100.016V99.3366C29.7344 100.219 28.707 100.661 27.4336 100.661C25.9102 100.661 24.6758 100.067 23.7305 98.8795C22.793 97.6842 22.3242 96.1022 22.3242 94.1334V93.9928ZM25.7109 94.2389C25.7109 95.3873 25.9414 96.2897 26.4023 96.9459C26.8633 97.5944 27.4961 97.9186 28.3008 97.9186C29.332 97.9186 30.0703 97.5319 30.5156 96.7584V91.4264C30.0625 90.653 29.332 90.2663 28.3242 90.2663C27.5117 90.2663 26.8711 90.5983 26.4023 91.2623C25.9414 91.9264 25.7109 92.9186 25.7109 94.2389ZM40.1016 100.426H36.7031V87.7467H40.1016V100.426ZM36.5039 84.4655C36.5039 83.9577 36.6719 83.5397 37.0078 83.2116C37.3516 82.8834 37.8164 82.7194 38.4023 82.7194C38.9805 82.7194 39.4414 82.8834 39.7852 83.2116C40.1289 83.5397 40.3008 83.9577 40.3008 84.4655C40.3008 84.9811 40.125 85.403 39.7734 85.7311C39.4297 86.0592 38.9727 86.2233 38.4023 86.2233C37.832 86.2233 37.3711 86.0592 37.0195 85.7311C36.6758 85.403 36.5039 84.9811 36.5039 84.4655ZM49.7695 96.9225C49.7695 96.5084 49.5625 96.1842 49.1484 95.9498C48.7422 95.7077 48.0859 95.4928 47.1797 95.3053C44.1641 94.6725 42.6562 93.3913 42.6562 91.4616C42.6562 90.3366 43.1211 89.3991 44.0508 88.6491C44.9883 87.8913 46.2109 87.5123 47.7188 87.5123C49.3281 87.5123 50.6133 87.8913 51.5742 88.6491C52.543 89.4069 53.0273 90.3913 53.0273 91.6022H49.6406C49.6406 91.1178 49.4844 90.7194 49.1719 90.4069C48.8594 90.0866 48.3711 89.9264 47.707 89.9264C47.1367 89.9264 46.6953 90.0553 46.3828 90.3131C46.0703 90.5709 45.9141 90.8991 45.9141 91.2975C45.9141 91.6725 46.0898 91.9772 46.4414 92.2116C46.8008 92.4381 47.4023 92.6373 48.2461 92.8092C49.0898 92.9733 49.8008 93.1608 50.3789 93.3717C52.168 94.028 53.0625 95.1647 53.0625 96.7819C53.0625 97.9381 52.5664 98.8756 51.5742 99.5944C50.582 100.305 49.3008 100.661 47.7305 100.661C46.668 100.661 45.7227 100.473 44.8945 100.098C44.0742 99.7155 43.4297 99.1959 42.9609 98.5397C42.4922 97.8756 42.2578 97.1608 42.2578 96.3952H45.4688C45.5 96.9967 45.7227 97.4577 46.1367 97.778C46.5508 98.0983 47.1055 98.2584 47.8008 98.2584C48.4492 98.2584 48.9375 98.1373 49.2656 97.8952C49.6016 97.6452 49.7695 97.3209 49.7695 96.9225ZM59.3086 84.6295V87.7467H61.4766V90.2311H59.3086V96.5592C59.3086 97.028 59.3984 97.3639 59.5781 97.567C59.7578 97.7702 60.1016 97.8717 60.6094 97.8717C60.9844 97.8717 61.3164 97.8444 61.6055 97.7897V100.356C60.9414 100.559 60.2578 100.661 59.5547 100.661C57.1797 100.661 55.9688 99.4616 55.9219 97.0631V90.2311H54.0703V87.7467H55.9219V84.6295H59.3086ZM70.4883 90.9225C70.0273 90.86 69.6211 90.8288 69.2695 90.8288C67.9883 90.8288 67.1484 91.2623 66.75 92.1295V100.426H63.3633V87.7467H66.5625L66.6562 89.2584C67.3359 88.0944 68.2773 87.5123 69.4805 87.5123C69.8555 87.5123 70.207 87.5631 70.5352 87.6647L70.4883 90.9225ZM79.125 100.426C78.9688 100.122 78.8555 99.7428 78.7852 99.2897C77.9648 100.204 76.8984 100.661 75.5859 100.661C74.3438 100.661 73.3125 100.301 72.4922 99.5827C71.6797 98.8639 71.2734 97.9577 71.2734 96.8639C71.2734 95.5202 71.7695 94.4889 72.7617 93.7702C73.7617 93.0514 75.2031 92.6881 77.0859 92.6803H78.6445V91.9538C78.6445 91.3678 78.4922 90.8991 78.1875 90.5475C77.8906 90.1959 77.418 90.0202 76.7695 90.0202C76.1992 90.0202 75.75 90.1569 75.4219 90.4303C75.1016 90.7038 74.9414 91.0788 74.9414 91.5553H71.5547C71.5547 90.8209 71.7812 90.1413 72.2344 89.5163C72.6875 88.8913 73.3281 88.403 74.1562 88.0514C74.9844 87.692 75.9141 87.5123 76.9453 87.5123C78.5078 87.5123 79.7461 87.9069 80.6602 88.6959C81.582 89.4772 82.043 90.5788 82.043 92.0006V97.4967C82.0508 98.6998 82.2188 99.61 82.5469 100.227V100.426H79.125ZM76.3242 98.0709C76.8242 98.0709 77.2852 97.9616 77.707 97.7428C78.1289 97.5163 78.4414 97.2155 78.6445 96.8405V94.6608H77.3789C75.6836 94.6608 74.7812 95.2467 74.6719 96.4186L74.6602 96.6178C74.6602 97.0397 74.8086 97.3873 75.1055 97.6608C75.4023 97.9342 75.8086 98.0709 76.3242 98.0709ZM96.0586 94.2038C96.0586 96.1569 95.6133 97.7233 94.7227 98.903C93.8398 100.075 92.6445 100.661 91.1367 100.661C89.8555 100.661 88.8203 100.215 88.0312 99.3248V105.301H84.6445V87.7467H87.7852L87.9023 88.9889C88.7227 88.0045 89.793 87.5123 91.1133 87.5123C92.6758 87.5123 93.8906 88.0905 94.7578 89.2467C95.625 90.403 96.0586 91.9967 96.0586 94.028V94.2038ZM92.6719 93.9577C92.6719 92.778 92.4609 91.8678 92.0391 91.2272C91.625 90.5866 91.0195 90.2663 90.2227 90.2663C89.1602 90.2663 88.4297 90.6725 88.0312 91.485V96.6764C88.4453 97.5123 89.1836 97.9303 90.2461 97.9303C91.8633 97.9303 92.6719 96.6061 92.6719 93.9577ZM109.582 94.2038C109.582 96.1569 109.137 97.7233 108.246 98.903C107.363 100.075 106.168 100.661 104.66 100.661C103.379 100.661 102.344 100.215 101.555 99.3248V105.301H98.168V87.7467H101.309L101.426 88.9889C102.246 88.0045 103.316 87.5123 104.637 87.5123C106.199 87.5123 107.414 88.0905 108.281 89.2467C109.148 90.403 109.582 91.9967 109.582 94.028V94.2038ZM106.195 93.9577C106.195 92.778 105.984 91.8678 105.562 91.2272C105.148 90.5866 104.543 90.2663 103.746 90.2663C102.684 90.2663 101.953 90.6725 101.555 91.485V96.6764C101.969 97.5123 102.707 97.9303 103.77 97.9303C105.387 97.9303 106.195 96.6061 106.195 93.9577Z" fill="white"/>
<path fill-rule="evenodd" clip-rule="evenodd" d="M17.5234 47.3762C14.7897 44.6425 14.7897 40.2103 17.5234 37.4767L50.0503 4.94975C52.7839 2.21608 57.2161 2.21608 59.9498 4.94975L92.4767 37.4767C95.2103 40.2103 95.2103 44.6425 92.4767 47.3762C89.743 50.1098 85.3108 50.1098 82.5772 47.3762L55 19.799L27.4229 47.3762C24.6892 50.1098 20.257 50.1098 17.5234 47.3762ZM39.4437 46.669C39.0531 47.0596 39.0531 47.6927 39.4437 48.0833L54.2929 62.9325C54.6834 63.323 55.3166 63.323 55.7071 62.9325L70.5564 48.0833C70.9469 47.6927 70.9469 47.0596 70.5564 46.669L55.7071 31.8198C55.3166 31.4293 54.6834 31.4293 54.2929 31.8198L39.4437 46.669Z" fill="url(#paint0_linear)"/>
<defs>
<linearGradient id="paint0_linear" x1="55.9027" y1="-7.22152" x2="51.8406" y2="77.18" gradientUnits="userSpaceOnUse">
<stop stop-color="white"/>
<stop offset="1" stop-color="white"/>
</linearGradient>
</defs>
</svg>
