<svg width="110" height="107" viewBox="0 0 110 107" fill="none" xmlns="http://www.w3.org/2000/svg">
<path d="M8.09766 90.3483C7.72266 90.2858 7.33594 90.2545 6.9375 90.2545C5.63281 90.2545 4.75391 90.7545 4.30078 91.7545V100.426H1.45312V87.7467H4.17188L4.24219 89.1647C4.92969 88.0631 5.88281 87.5123 7.10156 87.5123C7.50781 87.5123 7.84375 87.567 8.10938 87.6764L8.09766 90.3483ZM15.2461 100.661C13.4414 100.661 11.9766 100.094 10.8516 98.9616C9.73438 97.8209 9.17578 96.3053 9.17578 94.4147V94.0631C9.17578 92.7975 9.41797 91.6686 9.90234 90.6764C10.3945 89.6764 11.082 88.8991 11.9648 88.3444C12.8477 87.7897 13.832 87.5123 14.918 87.5123C16.6445 87.5123 17.9766 88.0631 18.9141 89.1647C19.8594 90.2663 20.332 91.8248 20.332 93.8405V94.9889H12.0469C12.1328 96.0358 12.4805 96.8639 13.0898 97.4733C13.707 98.0827 14.4805 98.3873 15.4102 98.3873C16.7148 98.3873 17.7773 97.86 18.5977 96.8053L20.1328 98.2702C19.625 99.028 18.9453 99.6178 18.0938 100.04C17.25 100.454 16.3008 100.661 15.2461 100.661ZM14.9062 89.7975C14.125 89.7975 13.4922 90.0709 13.0078 90.6178C12.5312 91.1647 12.2266 91.9264 12.0938 92.903H17.5195V92.692C17.457 91.7389 17.2031 91.0202 16.7578 90.5358C16.3125 90.0436 15.6953 89.7975 14.9062 89.7975ZM22.0547 93.9928C22.0547 92.0241 22.5156 90.4538 23.4375 89.2819C24.3672 88.1022 25.5977 87.5123 27.1289 87.5123C28.5742 87.5123 29.7109 88.0163 30.5391 89.0241L30.668 87.7467H33.2344V100.04C33.2344 101.704 32.7148 103.016 31.6758 103.977C30.6445 104.938 29.25 105.419 27.4922 105.419C26.5625 105.419 25.6523 105.223 24.7617 104.833C23.8789 104.45 23.207 103.946 22.7461 103.321L24.0938 101.61C24.9688 102.649 26.0469 103.169 27.3281 103.169C28.2734 103.169 29.0195 102.911 29.5664 102.395C30.1133 101.887 30.3867 101.137 30.3867 100.145V99.2897C29.5664 100.204 28.4727 100.661 27.1055 100.661C25.6211 100.661 24.4062 100.071 23.4609 98.8913C22.5234 97.7116 22.0547 96.0788 22.0547 93.9928ZM24.8906 94.2389C24.8906 95.5123 25.1484 96.5163 25.6641 97.2506C26.1875 97.9772 26.9102 98.3405 27.832 98.3405C28.9805 98.3405 29.832 97.8483 30.3867 96.8639V91.2858C29.8477 90.3248 29.0039 89.8444 27.8555 89.8444C26.918 89.8444 26.1875 90.2155 25.6641 90.9577C25.1484 91.6998 24.8906 92.7936 24.8906 94.2389ZM39.1992 100.426H36.3516V87.7467H39.1992V100.426ZM36.1758 84.4538C36.1758 84.0163 36.3125 83.653 36.5859 83.3639C36.8672 83.0748 37.2656 82.9303 37.7812 82.9303C38.2969 82.9303 38.6953 83.0748 38.9766 83.3639C39.2578 83.653 39.3984 84.0163 39.3984 84.4538C39.3984 84.8834 39.2578 85.2428 38.9766 85.5319C38.6953 85.8131 38.2969 85.9538 37.7812 85.9538C37.2656 85.9538 36.8672 85.8131 36.5859 85.5319C36.3125 85.2428 36.1758 84.8834 36.1758 84.4538ZM49.418 96.9811C49.418 96.4733 49.207 96.0866 48.7852 95.8209C48.3711 95.5553 47.6797 95.3209 46.7109 95.1178C45.7422 94.9147 44.9336 94.6569 44.2852 94.3444C42.8633 93.6569 42.1523 92.6608 42.1523 91.3561C42.1523 90.2623 42.6133 89.3483 43.5352 88.6139C44.457 87.8795 45.6289 87.5123 47.0508 87.5123C48.5664 87.5123 49.7891 87.8873 50.7188 88.6373C51.6562 89.3873 52.125 90.36 52.125 91.5553H49.2773C49.2773 91.0084 49.0742 90.5553 48.668 90.1959C48.2617 89.8288 47.7227 89.6452 47.0508 89.6452C46.4258 89.6452 45.9141 89.7897 45.5156 90.0788C45.125 90.3678 44.9297 90.7545 44.9297 91.2389C44.9297 91.6764 45.1133 92.0163 45.4805 92.2584C45.8477 92.5006 46.5898 92.7467 47.707 92.9967C48.8242 93.2389 49.6992 93.5319 50.332 93.8756C50.9727 94.2116 51.4453 94.6178 51.75 95.0944C52.0625 95.5709 52.2188 96.1491 52.2188 96.8288C52.2188 97.9694 51.7461 98.8952 50.8008 99.6061C49.8555 100.309 48.6172 100.661 47.0859 100.661C46.0469 100.661 45.1211 100.473 44.3086 100.098C43.4961 99.7233 42.8633 99.2077 42.4102 98.5514C41.957 97.8952 41.7305 97.1881 41.7305 96.4303H44.4961C44.5352 97.1022 44.7891 97.6217 45.2578 97.9889C45.7266 98.3483 46.3477 98.528 47.1211 98.528C47.8711 98.528 48.4414 98.3873 48.832 98.1061C49.2227 97.817 49.418 97.442 49.418 96.9811ZM58.2773 84.6647V87.7467H60.5156V89.8561H58.2773V96.9342C58.2773 97.4186 58.3711 97.7702 58.5586 97.9889C58.7539 98.1998 59.0977 98.3053 59.5898 98.3053C59.918 98.3053 60.25 98.2663 60.5859 98.1881V100.391C59.9375 100.571 59.3125 100.661 58.7109 100.661C56.5234 100.661 55.4297 99.4538 55.4297 97.0397V89.8561H53.3438V87.7467H55.4297V84.6647H58.2773ZM69.3398 90.3483C68.9648 90.2858 68.5781 90.2545 68.1797 90.2545C66.875 90.2545 65.9961 90.7545 65.543 91.7545V100.426H62.6953V87.7467H65.4141L65.4844 89.1647C66.1719 88.0631 67.125 87.5123 68.3438 87.5123C68.75 87.5123 69.0859 87.567 69.3516 87.6764L69.3398 90.3483ZM78.3633 100.426C78.2383 100.184 78.1289 99.7897 78.0352 99.2428C77.1289 100.188 76.0195 100.661 74.707 100.661C73.4336 100.661 72.3945 100.298 71.5898 99.5709C70.7852 98.8444 70.3828 97.9459 70.3828 96.8756C70.3828 95.5241 70.8828 94.4889 71.8828 93.7702C72.8906 93.0436 74.3281 92.6803 76.1953 92.6803H77.9414V91.8483C77.9414 91.192 77.7578 90.6686 77.3906 90.278C77.0234 89.8795 76.4648 89.6803 75.7148 89.6803C75.0664 89.6803 74.5352 89.8444 74.1211 90.1725C73.707 90.4928 73.5 90.903 73.5 91.403H70.6523C70.6523 90.7077 70.8828 90.0592 71.3438 89.4577C71.8047 88.8483 72.4297 88.3717 73.2188 88.028C74.0156 87.6842 74.9023 87.5123 75.8789 87.5123C77.3633 87.5123 78.5469 87.8873 79.4297 88.6373C80.3125 89.3795 80.7656 90.4264 80.7891 91.778V97.4967C80.7891 98.6373 80.9492 99.5475 81.2695 100.227V100.426H78.3633ZM75.2344 98.3756C75.7969 98.3756 76.3242 98.2389 76.8164 97.9655C77.3164 97.692 77.6914 97.3248 77.9414 96.8639V94.4733H76.4062C75.3516 94.4733 74.5586 94.6569 74.0273 95.0241C73.4961 95.3913 73.2305 95.9108 73.2305 96.5827C73.2305 97.1295 73.4102 97.567 73.7695 97.8952C74.1367 98.2155 74.625 98.3756 75.2344 98.3756ZM94.875 94.2155C94.875 96.1764 94.4297 97.7428 93.5391 98.9147C92.6484 100.079 91.4531 100.661 89.9531 100.661C88.5625 100.661 87.4492 100.204 86.6133 99.2897V105.301H83.7656V87.7467H86.3906L86.5078 89.0358C87.3438 88.0202 88.4805 87.5123 89.918 87.5123C91.4648 87.5123 92.6758 88.0905 93.5508 89.2467C94.4336 90.3952 94.875 91.9928 94.875 94.0397V94.2155ZM92.0391 93.9694C92.0391 92.7038 91.7852 91.6998 91.2773 90.9577C90.7773 90.2155 90.0586 89.8444 89.1211 89.8444C87.957 89.8444 87.1211 90.3248 86.6133 91.2858V96.9108C87.1289 97.8952 87.9727 98.3873 89.1445 98.3873C90.0508 98.3873 90.7578 98.0241 91.2656 97.2975C91.7812 96.5631 92.0391 95.4538 92.0391 93.9694ZM108.398 94.2155C108.398 96.1764 107.953 97.7428 107.062 98.9147C106.172 100.079 104.977 100.661 103.477 100.661C102.086 100.661 100.973 100.204 100.137 99.2897V105.301H97.2891V87.7467H99.9141L100.031 89.0358C100.867 88.0202 102.004 87.5123 103.441 87.5123C104.988 87.5123 106.199 88.0905 107.074 89.2467C107.957 90.3952 108.398 91.9928 108.398 94.0397V94.2155ZM105.562 93.9694C105.562 92.7038 105.309 91.6998 104.801 90.9577C104.301 90.2155 103.582 89.8444 102.645 89.8444C101.48 89.8444 100.645 90.3248 100.137 91.2858V96.9108C100.652 97.8952 101.496 98.3873 102.668 98.3873C103.574 98.3873 104.281 98.0241 104.789 97.2975C105.305 96.5631 105.562 95.4538 105.562 93.9694Z" fill="#012C56"/>
<path fill-rule="evenodd" clip-rule="evenodd" d="M17.5234 47.3762C14.7897 44.6425 14.7897 40.2103 17.5234 37.4767L50.0503 4.94975C52.7839 2.21608 57.2161 2.21608 59.9498 4.94975L92.4767 37.4767C95.2103 40.2103 95.2103 44.6425 92.4767 47.3762C89.743 50.1098 85.3108 50.1098 82.5772 47.3762L55 19.799L27.4229 47.3762C24.6892 50.1098 20.257 50.1098 17.5234 47.3762ZM39.4437 46.669C39.0531 47.0596 39.0531 47.6927 39.4437 48.0833L54.2929 62.9325C54.6834 63.323 55.3166 63.323 55.7071 62.9325L70.5564 48.0833C70.9469 47.6927 70.9469 47.0596 70.5564 46.669L55.7071 31.8198C55.3166 31.4293 54.6834 31.4293 54.2929 31.8198L39.4437 46.669Z" fill="url(#paint0_linear)"/>
<defs>
<linearGradient id="paint0_linear" x1="55.9027" y1="-7.22152" x2="51.8406" y2="77.18" gradientUnits="userSpaceOnUse">
<stop stop-color="#126FCB"/>
<stop offset="1" stop-color="#012C56"/>
</linearGradient>
</defs>
</svg>
