<svg id="SvgjsSvg1006" width="288" height="288" xmlns="http://www.w3.org/2000/svg" version="1.1" xmlns:xlink="http://www.w3.org/1999/xlink" xmlns:svgjs="http://svgjs.com/svgjs"><defs id="SvgjsDefs1007"></defs><g id="SvgjsG1008" transform="matrix(1,0,0,1,0,0)"><svg xmlns="http://www.w3.org/2000/svg" xmlns:svgjs="http://svgjs.com/svgjs" xmlns:xlink="http://www.w3.org/1999/xlink" width="288" height="288"><svg xmlns="http://www.w3.org/2000/svg" width="288" height="288" fill="none" viewBox="0 0 110 107"><path fill="#ffb500" d="M8.09766 90.3483C7.72266 90.2858 7.33594 90.2545 6.9375 90.2545C5.63281 90.2545 4.75391 90.7545 4.30078 91.7545V100.426H1.45312V87.7467H4.17188L4.24219 89.1647C4.92969 88.0631 5.88281 87.5123 7.10156 87.5123C7.50781 87.5123 7.84375 87.567 8.10938 87.6764L8.09766 90.3483ZM15.2461 100.661C13.4414 100.661 11.9766 100.094 10.8516 98.9616C9.73438 97.8209 9.17578 96.3053 9.17578 94.4147V94.0631C9.17578 92.7975 9.41797 91.6686 9.90234 90.6764C10.3945 89.6764 11.082 88.8991 11.9648 88.3444C12.8477 87.7897 13.832 87.5123 14.918 87.5123C16.6445 87.5123 17.9766 88.0631 18.9141 89.1647C19.8594 90.2663 20.332 91.8248 20.332 93.8405V94.9889H12.0469C12.1328 96.0358 12.4805 96.8639 13.0898 97.4733C13.707 98.0827 14.4805 98.3873 15.4102 98.3873C16.7148 98.3873 17.7773 97.86 18.5977 96.8053L20.1328 98.2702C19.625 99.028 18.9453 99.6178 18.0938 100.04C17.25 100.454 16.3008 100.661 15.2461 100.661ZM14.9062 89.7975C14.125 89.7975 13.4922 90.0709 13.0078 90.6178C12.5312 91.1647 12.2266 91.9264 12.0938 92.903H17.5195V92.692C17.457 91.7389 17.2031 91.0202 16.7578 90.5358C16.3125 90.0436 15.6953 89.7975 14.9062 89.7975ZM22.0547 93.9928C22.0547 92.0241 22.5156 90.4538 23.4375 89.2819C24.3672 88.1022 25.5977 87.5123 27.1289 87.5123C28.5742 87.5123 29.7109 88.0163 30.5391 89.0241L30.668 87.7467H33.2344V100.04C33.2344 101.704 32.7148 103.016 31.6758 103.977C30.6445 104.938 29.25 105.419 27.4922 105.419C26.5625 105.419 25.6523 105.223 24.7617 104.833C23.8789 104.45 23.207 103.946 22.7461 103.321L24.0938 101.61C24.9688 102.649 26.0469 103.169 27.3281 103.169C28.2734 103.169 29.0195 102.911 29.5664 102.395C30.1133 101.887 30.3867 101.137 30.3867 100.145V99.2897C29.5664 100.204 28.4727 100.661 27.1055 100.661C25.6211 100.661 24.4062 100.071 23.4609 98.8913C22.5234 97.7116 22.0547 96.0788 22.0547 93.9928ZM24.8906 94.2389C24.8906 95.5123 25.1484 96.5163 25.6641 97.2506C26.1875 97.9772 26.9102 98.3405 27.832 98.3405C28.9805 98.3405 29.832 97.8483 30.3867 96.8639V91.2858C29.8477 90.3248 29.0039 89.8444 27.8555 89.8444C26.918 89.8444 26.1875 90.2155 25.6641 90.9577C25.1484 91.6998 24.8906 92.7936 24.8906 94.2389ZM39.1992 100.426H36.3516V87.7467H39.1992V100.426ZM36.1758 84.4538C36.1758 84.0163 36.3125 83.653 36.5859 83.3639C36.8672 83.0748 37.2656 82.9303 37.7812 82.9303C38.2969 82.9303 38.6953 83.0748 38.9766 83.3639C39.2578 83.653 39.3984 84.0163 39.3984 84.4538C39.3984 84.8834 39.2578 85.2428 38.9766 85.5319C38.6953 85.8131 38.2969 85.9538 37.7812 85.9538C37.2656 85.9538 36.8672 85.8131 36.5859 85.5319C36.3125 85.2428 36.1758 84.8834 36.1758 84.4538ZM49.418 96.9811C49.418 96.4733 49.207 96.0866 48.7852 95.8209C48.3711 95.5553 47.6797 95.3209 46.7109 95.1178C45.7422 94.9147 44.9336 94.6569 44.2852 94.3444C42.8633 93.6569 42.1523 92.6608 42.1523 91.3561C42.1523 90.2623 42.6133 89.3483 43.5352 88.6139C44.457 87.8795 45.6289 87.5123 47.0508 87.5123C48.5664 87.5123 49.7891 87.8873 50.7188 88.6373C51.6562 89.3873 52.125 90.36 52.125 91.5553H49.2773C49.2773 91.0084 49.0742 90.5553 48.668 90.1959C48.2617 89.8288 47.7227 89.6452 47.0508 89.6452C46.4258 89.6452 45.9141 89.7897 45.5156 90.0788C45.125 90.3678 44.9297 90.7545 44.9297 91.2389C44.9297 91.6764 45.1133 92.0163 45.4805 92.2584C45.8477 92.5006 46.5898 92.7467 47.707 92.9967C48.8242 93.2389 49.6992 93.5319 50.332 93.8756C50.9727 94.2116 51.4453 94.6178 51.75 95.0944C52.0625 95.5709 52.2188 96.1491 52.2188 96.8288C52.2188 97.9694 51.7461 98.8952 50.8008 99.6061C49.8555 100.309 48.6172 100.661 47.0859 100.661C46.0469 100.661 45.1211 100.473 44.3086 100.098C43.4961 99.7233 42.8633 99.2077 42.4102 98.5514C41.957 97.8952 41.7305 97.1881 41.7305 96.4303H44.4961C44.5352 97.1022 44.7891 97.6217 45.2578 97.9889C45.7266 98.3483 46.3477 98.528 47.1211 98.528C47.8711 98.528 48.4414 98.3873 48.832 98.1061C49.2227 97.817 49.418 97.442 49.418 96.9811ZM58.2773 84.6647V87.7467H60.5156V89.8561H58.2773V96.9342C58.2773 97.4186 58.3711 97.7702 58.5586 97.9889C58.7539 98.1998 59.0977 98.3053 59.5898 98.3053C59.918 98.3053 60.25 98.2663 60.5859 98.1881V100.391C59.9375 100.571 59.3125 100.661 58.7109 100.661C56.5234 100.661 55.4297 99.4538 55.4297 97.0397V89.8561H53.3438V87.7467H55.4297V84.6647H58.2773ZM69.3398 90.3483C68.9648 90.2858 68.5781 90.2545 68.1797 90.2545C66.875 90.2545 65.9961 90.7545 65.543 91.7545V100.426H62.6953V87.7467H65.4141L65.4844 89.1647C66.1719 88.0631 67.125 87.5123 68.3438 87.5123C68.75 87.5123 69.0859 87.567 69.3516 87.6764L69.3398 90.3483Z" class="color000 svgShape color070707"></path><path fill="#004280" d="M78.7148 100.426C78.5898 100.184 78.4805 99.7897 78.3867 99.2428C77.4805 100.188 76.3711 100.661 75.0586 100.661C73.7852 100.661 72.7461 100.298 71.9414 99.5709C71.1367 98.8444 70.7344 97.9459 70.7344 96.8756C70.7344 95.5241 71.2344 94.4889 72.2344 93.7702C73.2422 93.0436 74.6797 92.6803 76.5469 92.6803H78.293V91.8483C78.293 91.192 78.1094 90.6686 77.7422 90.278C77.375 89.8795 76.8164 89.6803 76.0664 89.6803C75.418 89.6803 74.8867 89.8444 74.4727 90.1725C74.0586 90.4928 73.8516 90.903 73.8516 91.403H71.0039C71.0039 90.7077 71.2344 90.0592 71.6953 89.4577C72.1562 88.8483 72.7812 88.3717 73.5703 88.028C74.3672 87.6842 75.2539 87.5123 76.2305 87.5123C77.7148 87.5123 78.8984 87.8873 79.7812 88.6373C80.6641 89.3795 81.1172 90.4264 81.1406 91.778V97.4967C81.1406 98.6373 81.3008 99.5475 81.6211 100.227V100.426H78.7148ZM75.5859 98.3756C76.1484 98.3756 76.6758 98.2389 77.168 97.9655C77.668 97.692 78.043 97.3248 78.293 96.8639V94.4733H76.7578C75.7031 94.4733 74.9102 94.6569 74.3789 95.0241C73.8477 95.3913 73.582 95.9108 73.582 96.5827C73.582 97.1295 73.7617 97.567 74.1211 97.8952C74.4883 98.2155 74.9766 98.3756 75.5859 98.3756ZM95.2266 94.2155C95.2266 96.1764 94.7812 97.7428 93.8906 98.9147C93 100.079 91.8047 100.661 90.3047 100.661C88.9141 100.661 87.8008 100.204 86.9648 99.2897V105.301H84.1172V87.7467H86.7422L86.8594 89.0358C87.6953 88.0202 88.832 87.5123 90.2695 87.5123C91.8164 87.5123 93.0273 88.0905 93.9023 89.2467C94.7852 90.3952 95.2266 91.9928 95.2266 94.0397V94.2155ZM92.3906 93.9694C92.3906 92.7038 92.1367 91.6998 91.6289 90.9577C91.1289 90.2155 90.4102 89.8444 89.4727 89.8444C88.3086 89.8444 87.4727 90.3248 86.9648 91.2858V96.9108C87.4805 97.8952 88.3242 98.3873 89.4961 98.3873C90.4023 98.3873 91.1094 98.0241 91.6172 97.2975C92.1328 96.5631 92.3906 95.4538 92.3906 93.9694ZM108.75 94.2155C108.75 96.1764 108.305 97.7428 107.414 98.9147C106.523 100.079 105.328 100.661 103.828 100.661C102.438 100.661 101.324 100.204 100.488 99.2897V105.301H97.6406V87.7467H100.266L100.383 89.0358C101.219 88.0202 102.355 87.5123 103.793 87.5123C105.34 87.5123 106.551 88.0905 107.426 89.2467C108.309 90.3952 108.75 91.9928 108.75 94.0397V94.2155ZM105.914 93.9694C105.914 92.7038 105.66 91.6998 105.152 90.9577C104.652 90.2155 103.934 89.8444 102.996 89.8444C101.832 89.8444 100.996 90.3248 100.488 91.2858V96.9108C101.004 97.8952 101.848 98.3873 103.02 98.3873C103.926 98.3873 104.633 98.0241 105.141 97.2975C105.656 96.5631 105.914 95.4538 105.914 93.9694Z" class="color00EBB2 svgShape color307fe2"></path><path fill="url(#paint0_linear)" fill-rule="evenodd" d="M17.5234 47.3762C14.7897 44.6425 14.7897 40.2103 17.5234 37.4767L50.0503 4.94975C52.7839 2.21608 57.2161 2.21608 59.9498 4.94975L92.4767 37.4767C95.2103 40.2103 95.2103 44.6425 92.4767 47.3762C89.743 50.1098 85.3108 50.1098 82.5772 47.3762L55 19.799L27.4229 47.3762C24.6892 50.1098 20.257 50.1098 17.5234 47.3762ZM39.4437 46.669C39.0531 47.0596 39.0531 47.6927 39.4437 48.0833L54.2929 62.9325C54.6834 63.323 55.3166 63.323 55.7071 62.9325L70.5564 48.0833C70.9469 47.6927 70.9469 47.0596 70.5564 46.669L55.7071 31.8198C55.3166 31.4293 54.6834 31.4293 54.2929 31.8198L39.4437 46.669Z" clip-rule="evenodd"></path><defs><linearGradient id="paint0_linear" x1="55.903" x2="51.841" y1="-7.222" y2="77.18" gradientUnits="userSpaceOnUse"><stop class="stopColor00EBB2 svgShape stopColorffb500" stop-color="#003a6e"></stop><stop class="stopColor0CAE87 svgShape stopColorc59001" offset="1" stop-color="#0070ff"></stop></linearGradient></defs></svg></svg></g></svg>